<svg xmlns="http://www.w3.org/2000/svg" viewBox="0 0 820 420" width="820" height="420" font-family="ui-sans-serif, -apple-system, 'Segoe UI', Helvetica, Arial, sans-serif" font-size="12">
<title>Truck: held-out PSNR as training proceeds</title>
<line x1="70" x2="590" y1="356.0" y2="356.0" stroke="#d8dee4" stroke-width="1"/>
<text x="60" y="360.0" text-anchor="end" fill="#59636e" font-variant-numeric="tabular-nums">23.0</text>
<line x1="70" x2="590" y1="317.0" y2="317.0" stroke="#d8dee4" stroke-width="1"/>
<text x="60" y="321.0" text-anchor="end" fill="#59636e" font-variant-numeric="tabular-nums">23.5</text>
<line x1="70" x2="590" y1="278.0" y2="278.0" stroke="#d8dee4" stroke-width="1"/>
<text x="60" y="282.0" text-anchor="end" fill="#59636e" font-variant-numeric="tabular-nums">24.0</text>
<line x1="70" x2="590" y1="239.0" y2="239.0" stroke="#d8dee4" stroke-width="1"/>
<text x="60" y="243.0" text-anchor="end" fill="#59636e" font-variant-numeric="tabular-nums">24.5</text>
<line x1="70" x2="590" y1="200.0" y2="200.0" stroke="#d8dee4" stroke-width="1"/>
<text x="60" y="204.0" text-anchor="end" fill="#59636e" font-variant-numeric="tabular-nums">25.0</text>
<line x1="70" x2="590" y1="161.0" y2="161.0" stroke="#d8dee4" stroke-width="1"/>
<text x="60" y="165.0" text-anchor="end" fill="#59636e" font-variant-numeric="tabular-nums">25.5</text>
<line x1="70" x2="590" y1="122.0" y2="122.0" stroke="#d8dee4" stroke-width="1"/>
<text x="60" y="126.0" text-anchor="end" fill="#59636e" font-variant-numeric="tabular-nums">26.0</text>
<line x1="70" x2="590" y1="83.0" y2="83.0" stroke="#d8dee4" stroke-width="1"/>
<text x="60" y="87.0" text-anchor="end" fill="#59636e" font-variant-numeric="tabular-nums">26.5</text>
<line x1="70" x2="590" y1="44.0" y2="44.0" stroke="#d8dee4" stroke-width="1"/>
<text x="60" y="48.0" text-anchor="end" fill="#59636e" font-variant-numeric="tabular-nums">27.0</text>
<line x1="70.0" x2="70.0" y1="356" y2="361" stroke="#8c959f"/>
<text x="70.0" y="376" text-anchor="middle" fill="#59636e">0</text>
<line x1="151.3" x2="151.3" y1="356" y2="361" stroke="#8c959f"/>
<text x="151.3" y="376" text-anchor="middle" fill="#59636e">5</text>
<line x1="232.5" x2="232.5" y1="356" y2="361" stroke="#8c959f"/>
<text x="232.5" y="376" text-anchor="middle" fill="#59636e">10</text>
<line x1="313.8" x2="313.8" y1="356" y2="361" stroke="#8c959f"/>
<text x="313.8" y="376" text-anchor="middle" fill="#59636e">15</text>
<line x1="395.0" x2="395.0" y1="356" y2="361" stroke="#8c959f"/>
<text x="395.0" y="376" text-anchor="middle" fill="#59636e">20</text>
<line x1="476.3" x2="476.3" y1="356" y2="361" stroke="#8c959f"/>
<text x="476.3" y="376" text-anchor="middle" fill="#59636e">25</text>
<line x1="557.5" x2="557.5" y1="356" y2="361" stroke="#8c959f"/>
<text x="557.5" y="376" text-anchor="middle" fill="#59636e">30</text>
<line x1="70" x2="590" y1="356" y2="356" stroke="#8c959f"/>
<text x="330" y="398" text-anchor="middle" fill="#59636e">training minutes on one RTX 5080 (camera solve not included)</text>
<text transform="translate(22 200) rotate(-90)" text-anchor="middle" fill="#59636e">test PSNR, dB (32 held-out photos)</text>
<line x1="70" x2="590" y1="90.0" y2="90.0" stroke="#6e7781" stroke-dasharray="4 4" stroke-width="1"/>
<text x="600" y="90.0" fill="#6e7781">Student Splatting &amp; Scooping</text>
<line x1="70" x2="590" y1="113.4" y2="113.4" stroke="#6e7781" stroke-dasharray="4 4" stroke-width="1"/>
<text x="600" y="121.4" fill="#6e7781">3DGS-MCMC</text>
<line x1="70" x2="590" y1="139.9" y2="139.9" stroke="#6e7781" stroke-dasharray="4 4" stroke-width="1"/>
<text x="600" y="140.9" fill="#6e7781">Scaffold-GS</text>
<line x1="70" x2="590" y1="142.3" y2="142.3" stroke="#6e7781" stroke-dasharray="4 4" stroke-width="1"/>
<text x="600" y="156.3" fill="#6e7781">Mip-Splatting</text>
<line x1="70" x2="590" y1="186.0" y2="186.0" stroke="#6e7781" stroke-dasharray="4 4" stroke-width="1"/>
<text x="600" y="194.0" fill="#6e7781">3DGS (2023)</text>
<polygon points="167.5,305.7 200.0,233.8 232.5,182.1 265.0,155.9 297.5,117.2 330.0,102.3 362.5,92.4 395.0,84.6 427.5,82.8 460.0,80.1 492.5,76.4 525.0,74.0 557.5,69.9 557.5,72.2 557.5,85.5 557.5,76.4 525.0,79.8 492.5,81.6 460.0,80.5 427.5,84.3 395.0,84.8 362.5,92.9 330.0,107.4 297.5,133.4 265.0,156.1 232.5,183.4 200.0,237.4 167.5,351.4" fill="#0f9c8c" opacity="0.18"/>
<polyline points="167.5,328.5 200.0,235.6 232.5,182.7 265.0,156.0 297.5,125.3 330.0,104.9 362.5,92.7 395.0,84.7 427.5,83.6 460.0,80.3 492.5,79.0 525.0,76.8 557.5,73.2 557.5,78.9" fill="none" stroke="#0f9c8c" stroke-width="2.5" stroke-linejoin="round"/>
<circle cx="167.5" cy="328.5" r="2.5" fill="#0f9c8c" stroke="#0f9c8c" stroke-width="2.5"/>
<circle cx="200.0" cy="235.6" r="2.5" fill="#0f9c8c" stroke="#0f9c8c" stroke-width="2.5"/>
<circle cx="232.5" cy="182.7" r="2.5" fill="#0f9c8c" stroke="#0f9c8c" stroke-width="2.5"/>
<circle cx="265.0" cy="156.0" r="2.5" fill="#0f9c8c" stroke="#0f9c8c" stroke-width="2.5"/>
<circle cx="297.5" cy="125.3" r="2.5" fill="#0f9c8c" stroke="#0f9c8c" stroke-width="2.5"/>
<circle cx="330.0" cy="104.9" r="2.5" fill="#0f9c8c" stroke="#0f9c8c" stroke-width="2.5"/>
<circle cx="362.5" cy="92.7" r="2.5" fill="#0f9c8c" stroke="#0f9c8c" stroke-width="2.5"/>
<circle cx="395.0" cy="84.7" r="2.5" fill="#0f9c8c" stroke="#0f9c8c" stroke-width="2.5"/>
<circle cx="427.5" cy="83.6" r="2.5" fill="#0f9c8c" stroke="#0f9c8c" stroke-width="2.5"/>
<circle cx="460.0" cy="80.3" r="2.5" fill="#0f9c8c" stroke="#0f9c8c" stroke-width="2.5"/>
<circle cx="492.5" cy="79.0" r="2.5" fill="#0f9c8c" stroke="#0f9c8c" stroke-width="2.5"/>
<circle cx="525.0" cy="76.8" r="2.5" fill="#0f9c8c" stroke="#0f9c8c" stroke-width="2.5"/>
<circle cx="557.5" cy="73.2" r="2.5" fill="#0f9c8c" stroke="#0f9c8c" stroke-width="2.5"/>
<circle cx="557.5" cy="78.9" r="5" fill="#ffffff" stroke="#0f9c8c" stroke-width="2.5"/>
<text x="563.5" y="64.9" text-anchor="end" fill="#0f9c8c" font-weight="700" font-size="13">Splat.js</text>
<path d="M 159.375 105.07999999999996 L 165.375 111.07999999999996 L 159.375 117.07999999999996 L 153.375 111.07999999999996 Z" fill="#8250df"/>
<line x1="159.375" x2="159.375" y1="104.1" y2="68.8" stroke="#8250df" stroke-width="1" stroke-dasharray="2 3"/>
<text x="109.4" y="65.8" text-anchor="start" fill="#8250df" font-size="11"><tspan font-weight="600">LichtFeld Studio</tspan></text>
<path d="M 557.5 108.19999999999987 L 563.5 114.19999999999987 L 557.5 120.19999999999987 L 551.5 114.19999999999987 Z" fill="#8250df"/>
<text x="547.5" y="131.2" text-anchor="end" fill="#8250df" font-size="11"><tspan font-weight="600">Brush v0.3</tspan></text>
<text x="70" y="22" fill="#1f2328" font-size="15" font-weight="700">Tanks &amp; Temples Truck — held-out PSNR as training proceeds</text>
</svg>
